<?xml version="1.0" encoding="UTF-8"?>
<svg xmlns="http://www.w3.org/2000/svg" width="1100" height="520" viewBox="0 0 1100 520" font-family="Inter,Segoe UI,sans-serif">
<rect width="1100" height="520" fill="#0d0f12"/>
<text x="60" y="28" fill="#f2f2f2" font-size="20" font-weight="700">Margine kernel vs stock Fedora &#8212; same laptop, median of runs</text>
<text x="60" y="46" fill="#9aa0a6" font-size="12">Framework Laptop 13 (AMD Ryzen 5 7640U, Radeon 760M) &#183; 12 CPUs &#183; governor performance &#183; 2026-06-16T23:07:27+02:00</text>
<text x="60" y="62" fill="#9aa0a6" font-size="12">start temp margine-cachyos 54&#176;C, bluefin-dx 52&#176;C &#183; median of margine-cachyos &#215;3, bluefin-dx &#215;4</text>
<line x1="60" y1="315.2" x2="1076" y2="315.2" stroke="#2a2e35" stroke-dasharray="3 4" stroke-width="1"/>
<text x="52" y="319.2" fill="#9aa0a6" font-size="11" text-anchor="end">0.5&#215;</text>
<line x1="60" y1="240.3" x2="1076" y2="240.3" stroke="#D97757" stroke-width="1"/>
<text x="52" y="244.3" fill="#9aa0a6" font-size="11" text-anchor="end">1.0&#215;</text>
<line x1="60" y1="165.5" x2="1076" y2="165.5" stroke="#2a2e35" stroke-dasharray="3 4" stroke-width="1"/>
<text x="52" y="169.5" fill="#9aa0a6" font-size="11" text-anchor="end">1.5&#215;</text>
<line x1="60" y1="90.7" x2="1076" y2="90.7" stroke="#2a2e35" stroke-dasharray="3 4" stroke-width="1"/>
<text x="52" y="94.7" fill="#9aa0a6" font-size="11" text-anchor="end">2.0&#215;</text>
<rect x="60.0" y="122.1" width="43.0" height="267.9" rx="3" fill="#D97757"/>
<text x="81.5" y="117.1" fill="#e8e8e8" font-size="10" text-anchor="middle">1.79&#215;</text>
<rect x="109.0" y="240.3" width="43.0" height="149.7" rx="3" fill="#0066CC"/>
<text x="130.5" y="235.3" fill="#e8e8e8" font-size="10" text-anchor="middle">1.00&#215;</text>
<text x="106.0" y="408" fill="#c7ccd1" font-size="11" text-anchor="middle">Context-switch</text>
<text x="106.0" y="422" fill="#c7ccd1" font-size="11" text-anchor="middle">latency</text>
<text x="106.0" y="438" fill="#7f868d" font-size="9" text-anchor="middle">(&#181;s/op)</text>
<rect x="192.0" y="256.1" width="43.0" height="133.9" rx="3" fill="#D97757"/>
<text x="213.5" y="251.1" fill="#e8e8e8" font-size="10" text-anchor="middle">0.89&#215;</text>
<rect x="241.0" y="240.3" width="43.0" height="149.7" rx="3" fill="#0066CC"/>
<text x="262.5" y="235.3" fill="#e8e8e8" font-size="10" text-anchor="middle">1.00&#215;</text>
<text x="238.0" y="408" fill="#c7ccd1" font-size="11" text-anchor="middle">Wakeup latency</text>
<text x="238.0" y="422" fill="#c7ccd1" font-size="11" text-anchor="middle">p99</text>
<text x="238.0" y="438" fill="#7f868d" font-size="9" text-anchor="middle">(&#181;s)</text>
<rect x="324.0" y="175.2" width="43.0" height="214.8" rx="3" fill="#D97757"/>
<text x="345.5" y="170.2" fill="#e8e8e8" font-size="10" text-anchor="middle">1.44&#215;</text>
<rect x="373.0" y="240.3" width="43.0" height="149.7" rx="3" fill="#0066CC"/>
<text x="394.5" y="235.3" fill="#e8e8e8" font-size="10" text-anchor="middle">1.00&#215;</text>
<text x="370.0" y="408" fill="#c7ccd1" font-size="11" text-anchor="middle">Wakeup latency</text>
<text x="370.0" y="422" fill="#c7ccd1" font-size="11" text-anchor="middle">p50</text>
<text x="370.0" y="438" fill="#7f868d" font-size="9" text-anchor="middle">(&#181;s)</text>
<rect x="456.0" y="227.2" width="43.0" height="162.8" rx="3" fill="#D97757"/>
<text x="477.5" y="222.2" fill="#e8e8e8" font-size="10" text-anchor="middle">1.09&#215;</text>
<rect x="505.0" y="240.3" width="43.0" height="149.7" rx="3" fill="#0066CC"/>
<text x="526.5" y="235.3" fill="#e8e8e8" font-size="10" text-anchor="middle">1.00&#215;</text>
<text x="502.0" y="408" fill="#c7ccd1" font-size="11" text-anchor="middle">Sched-messaging</text>
<text x="502.0" y="422" fill="#c7ccd1" font-size="11" text-anchor="middle">time</text>
<text x="502.0" y="438" fill="#7f868d" font-size="9" text-anchor="middle">(s)</text>
<rect x="588.0" y="158.7" width="43.0" height="231.3" rx="3" fill="#D97757"/>
<text x="609.5" y="153.7" fill="#e8e8e8" font-size="10" text-anchor="middle">1.55&#215;</text>
<rect x="637.0" y="240.3" width="43.0" height="149.7" rx="3" fill="#0066CC"/>
<text x="658.5" y="235.3" fill="#e8e8e8" font-size="10" text-anchor="middle">1.00&#215;</text>
<text x="634.0" y="408" fill="#c7ccd1" font-size="11" text-anchor="middle">Thread latency</text>
<text x="634.0" y="422" fill="#c7ccd1" font-size="11" text-anchor="middle">avg</text>
<text x="634.0" y="438" fill="#7f868d" font-size="9" text-anchor="middle">(ms)</text>
<rect x="720.0" y="256.9" width="43.0" height="133.1" rx="3" fill="#D97757"/>
<text x="741.5" y="251.9" fill="#e8e8e8" font-size="10" text-anchor="middle">0.89&#215;</text>
<rect x="769.0" y="240.3" width="43.0" height="149.7" rx="3" fill="#0066CC"/>
<text x="790.5" y="235.3" fill="#e8e8e8" font-size="10" text-anchor="middle">1.00&#215;</text>
<text x="766.0" y="408" fill="#c7ccd1" font-size="11" text-anchor="middle">Thread latency</text>
<text x="766.0" y="422" fill="#c7ccd1" font-size="11" text-anchor="middle">p95</text>
<text x="766.0" y="438" fill="#7f868d" font-size="9" text-anchor="middle">(ms)</text>
<rect x="852.0" y="122.1" width="43.0" height="267.9" rx="3" fill="#D97757"/>
<text x="873.5" y="117.1" fill="#e8e8e8" font-size="10" text-anchor="middle">1.79&#215;</text>
<rect x="901.0" y="240.3" width="43.0" height="149.7" rx="3" fill="#0066CC"/>
<text x="922.5" y="235.3" fill="#e8e8e8" font-size="10" text-anchor="middle">1.00&#215;</text>
<text x="898.0" y="408" fill="#c7ccd1" font-size="11" text-anchor="middle">Context-switch</text>
<text x="898.0" y="422" fill="#c7ccd1" font-size="11" text-anchor="middle">rate</text>
<text x="898.0" y="438" fill="#7f868d" font-size="9" text-anchor="middle">(ops/s)</text>
<rect x="984.0" y="158.9" width="43.0" height="231.1" rx="3" fill="#D97757"/>
<text x="1005.5" y="153.9" fill="#e8e8e8" font-size="10" text-anchor="middle">1.54&#215;</text>
<rect x="1033.0" y="240.3" width="43.0" height="149.7" rx="3" fill="#0066CC"/>
<text x="1054.5" y="235.3" fill="#e8e8e8" font-size="10" text-anchor="middle">1.00&#215;</text>
<text x="1030.0" y="408" fill="#c7ccd1" font-size="11" text-anchor="middle">Thread</text>
<text x="1030.0" y="422" fill="#c7ccd1" font-size="11" text-anchor="middle">events</text>
<text x="1030.0" y="438" fill="#7f868d" font-size="9" text-anchor="middle">(count)</text>
<rect x="60" y="480" width="12" height="12" rx="2" fill="#D97757"/>
<text x="78" y="490" fill="#c7ccd1" font-size="12">margine-cachyos</text>
<rect x="195" y="480" width="12" height="12" rx="2" fill="#0066CC"/>
<text x="213" y="490" fill="#c7ccd1" font-size="12">bluefin-dx  (baseline)</text>
<text x="60" y="510" fill="#7f868d" font-size="10">Higher = better (latency inverted). Baseline = 1.00&#215;.</text>
</svg>
